<svg width="56" height="104" viewBox="0 0 56 104" fill="none" xmlns="http://www.w3.org/2000/svg">
<path d="M55.3019 27.375C56.0517 28.2083 56.1975 29.125 55.7393 30.125L21.9991 102.438C21.4576 103.479 20.5828 104 19.3748 104C19.2082 104 18.9166 103.958 18.5001 103.875C17.7919 103.667 17.2609 103.271 16.9068 102.688C16.5527 102.104 16.459 101.479 16.6256 100.812L28.9346 50.3125L3.5669 56.625C3.40028 56.6667 3.15036 56.6875 2.81712 56.6875C2.06734 56.6875 1.42169 56.4583 0.88018 56C0.130397 55.375 -0.140358 54.5625 0.0679151 53.5625L12.6268 2C12.7934 1.41667 13.1266 0.9375 13.6265 0.5625C14.1263 0.1875 14.7095 0 15.376 0H35.8701C36.6615 0 37.328 0.260417 37.8695 0.78125C38.411 1.30208 38.6817 1.91667 38.6817 2.625C38.6817 2.95833 38.5776 3.33333 38.3693 3.75L27.6849 32.6875L52.4278 26.5625C52.761 26.4792 53.0109 26.4375 53.1775 26.4375C53.969 26.4375 54.6771 26.75 55.3019 27.375Z" fill="#F1D302"/>
</svg>
